<?xml version="1.0" encoding="utf-8"?>
<!-- Generator: Adobe Illustrator 24.2.2, SVG Export Plug-In . SVG Version: 6.00 Build 0)  -->
<svg version="1.1" id="Calque_1" xmlns="http://www.w3.org/2000/svg" xmlns:xlink="http://www.w3.org/1999/xlink" x="0px" y="0px"
	 viewBox="0 0 255 234" style="enable-background:new 0 0 255 234;" xml:space="preserve">
<style type="text/css">
	.st0{fill:#595959;}
	.st1{fill:url(#SVGID_1_);}
	.st2{fill:url(#SVGID_2_);}
	.st3{fill:#FFFFFF;}
	.st4{fill:url(#SVGID_3_);}
	.st5{fill:url(#SVGID_4_);}
	.st6{fill:url(#SVGID_5_);}
	.st7{fill:#E0E0E0;}
</style>
<g id="Layer_3">
</g>
<g id="Layer_2">
	<g>
		<g>
			
				<ellipse transform="matrix(3.000150e-02 -0.9995 0.9995 3.000150e-02 9.2267 240.9379)" class="st0" cx="128.8" cy="115.7" rx="107.4" ry="105.8"/>
		</g>
		
			<linearGradient id="SVGID_1_" gradientUnits="userSpaceOnUse" x1="84.6783" y1="27.4002" x2="167.8668" y2="227.3874" gradientTransform="matrix(1.0186 3.060000e-02 2.960000e-02 -0.9849 -3.626 237.0745)">
			<stop  offset="0.1684" style="stop-color:#A4B3BD"/>
			<stop  offset="0.7313" style="stop-color:#EFF1F3"/>
			<stop  offset="0.8503" style="stop-color:#FFFFFF"/>
		</linearGradient>
		<path class="st1" d="M234.6,118.6c-1.8,59.3-50.6,105.9-109,104.2C67.1,221.1,21.2,171.6,23,112.3S73.6,6.3,132,8.1
			C190.4,9.8,236.3,59.3,234.6,118.6z"/>
		
			<linearGradient id="SVGID_2_" gradientUnits="userSpaceOnUse" x1="84.7517" y1="26.2184" x2="172.5589" y2="214.5216" gradientTransform="matrix(1 0 0 -1 0 236)">
			<stop  offset="0" style="stop-color:#FDFDFD"/>
			<stop  offset="0.3014" style="stop-color:#F4F4F4"/>
			<stop  offset="0.7865" style="stop-color:#DDDDDD"/>
			<stop  offset="1" style="stop-color:#D0D0D0"/>
		</linearGradient>
		<circle class="st2" cx="128.7" cy="115.6" r="103.9"/>
	</g>
	<g>
		<path class="st3" d="M179.7,151.3c0,0-10.3-11.8-22.3-25.2c-3.3-3.6-3.3-9.2-0.1-12.9c12.4-14.2,22.4-25.7,22.4-25.7l0.2-0.3
			c4.2-4.6,4.6-11.7,0.7-16.7c-4.3-5.6-12.2-6.5-17.6-2.2c0,0-11.5,10.4-25.2,22.9c-3.7,3.3-9.2,3.2-12.8-0.3
			c-14.1-14-34.1-30.6-43.2-21.2c-12.5,12.8,3.3,26.9,19.8,38.6c5,3.6,9.5,11.8,5,15.9c-6.1,5.6-12.4,12.6-12.9,13
			c-11.7,12-19.2,23.7-11.8,31.8c9.1,10,25.1-1.4,32.9-9.8c3.2-3.4,7.5-8.2,13-14.5c3.8-4.3,11.4-3.2,15.1,1.2
			c9.9,11.8,20.3,24.4,20.3,24.4c5.4,4.4,13.3,3.4,17.6-2.1c3.9-5.1,3.5-12.2-0.7-16.7L179.7,151.3z"/>
		
			<radialGradient id="SVGID_3_" cx="118.5016" cy="97.4364" r="86.1209" gradientTransform="matrix(1 0 0 -1 0 236)" gradientUnits="userSpaceOnUse">
			<stop  offset="0" style="stop-color:#CB765C"/>
			<stop  offset="0.2457" style="stop-color:#C76C50"/>
			<stop  offset="0.606" style="stop-color:#C46245"/>
			<stop  offset="1" style="stop-color:#C35F41"/>
		</radialGradient>
		<path class="st4" d="M178.8,148.5c0,0-10.3-11.5-22.3-24.7c-3.3-3.6-3.3-9-0.1-12.6c12.4-13.9,22.4-25.1,22.4-25.1l0.2-0.2
			c4.2-4.4,4.6-11.4,0.7-16.3c-4.3-5.4-12.2-6.4-17.6-2.1c0,0-11.5,10.2-25.2,22.4c-3.7,3.3-9.2,3.1-12.8-0.3
			c-14.1-13.7-34.1-29.9-43.2-20.7c-12.5,12.5,3.3,26.3,19.8,37.7c5,3.5,9.5,11.5,5,15.6c-6.1,5.5-12.4,12.3-12.9,12.7
			c-11.7,11.7-19.2,23.1-11.8,31.1c9.1,9.8,25.1-1.4,32.9-9.6c3.2-3.4,7.5-8,13-14.1c3.8-4.2,11.4-3.1,15.1,1.2
			c9.9,11.5,20.3,23.9,20.3,23.9c5.4,4.3,13.3,3.3,17.6-2.1c3.9-4.9,3.5-11.9-0.7-16.3L178.8,148.5z"/>
		<g>
			
				<radialGradient id="SVGID_4_" cx="89.9916" cy="86.1705" r="27.2799" gradientTransform="matrix(1 0 0 -1 0 236)" gradientUnits="userSpaceOnUse">
				<stop  offset="0" style="stop-color:#CB765C"/>
				<stop  offset="0.2457" style="stop-color:#C76C50"/>
				<stop  offset="0.606" style="stop-color:#C46245"/>
				<stop  offset="1" style="stop-color:#C35F41"/>
			</radialGradient>
			<path class="st5" d="M93.6,140.2c0.4-0.4,6.8-7.3,12.9-12.7c2.4-2.2,2.3-5.4,0.8-8.6c-0.2,1.2-0.8,2.2-1.8,3.1
				c-6.1,5.5-12.4,12.3-12.9,12.7c-10.4,10.4-17.4,20.5-13.8,28.2C79.4,156.2,85.5,148.3,93.6,140.2z"/>
			
				<radialGradient id="SVGID_5_" cx="165.8158" cy="88.7948" r="23.9326" gradientTransform="matrix(1 0 0 -1 0 236)" gradientUnits="userSpaceOnUse">
				<stop  offset="0" style="stop-color:#CB765C"/>
				<stop  offset="0.2457" style="stop-color:#C76C50"/>
				<stop  offset="0.606" style="stop-color:#C46245"/>
				<stop  offset="1" style="stop-color:#C35F41"/>
			</radialGradient>
			<path class="st6" d="M178.8,148.5c0,0-10.3-11.5-22.3-24.7c-0.6-0.7-1.1-1.4-1.4-2.1c-0.4,2.7,0.4,5.5,2.4,7.6
				c12,13.1,22.3,24.7,22.3,24.7l0.2,0.2c1.1,1.1,1.9,2.4,2.4,3.8c0.2-3.4-1-6.7-3.4-9.3L178.8,148.5z"/>
			<path class="st7" d="M81.7,74.2c9.1-9.1,29.1,12.5,43.2,26.2c3.5,3.4,9.1,3.6,12.8,0.3C151.5,88.5,163,72.9,163,72.9
				c5.4-4.3,13.3-3.3,17.6,2.1c0.7,0.9,1.3,1.9,1.8,3c0.2-2.9-0.7-6-2.7-8.5c-4.3-5.4-12.2-6.4-17.6-2.1c0,0-11.5,10.2-25.2,22.4
				c-3.7,3.3-9.2,3.1-12.8-0.3c-14.1-13.7-34.1-29.9-43.2-20.7c-4.7,4.7-5.4,9.6-3.6,14.5C77.4,80.2,78.8,77.2,81.7,74.2z"/>
		</g>
	</g>
</g>
</svg>
