<?xml version="1.0" encoding="utf-8"?>
<!-- Generator: Adobe Illustrator 24.2.2, SVG Export Plug-In . SVG Version: 6.00 Build 0)  -->
<svg version="1.1" id="Calque_1" xmlns="http://www.w3.org/2000/svg" xmlns:xlink="http://www.w3.org/1999/xlink" x="0px" y="0px"
	 viewBox="0 0 255 234" style="enable-background:new 0 0 255 234;" xml:space="preserve">
<style type="text/css">
	.st0{fill:#595959;}
	.st1{fill:url(#SVGID_1_);}
	.st2{fill:url(#SVGID_2_);}
	.st3{fill:#FFFFFF;}
	.st4{fill:url(#SVGID_3_);}
	.st5{fill:url(#SVGID_4_);}
	.st6{fill:url(#SVGID_5_);}
	.st7{fill:#E0E0E0;}
	.st8{fill:url(#SVGID_6_);}
	.st9{fill:url(#SVGID_7_);}
	.st10{opacity:0.33;}
	.st11{fill:url(#SVGID_8_);}
	.st12{fill:url(#SVGID_9_);}
	.st13{fill:url(#SVGID_10_);}
	.st14{fill:url(#SVGID_11_);}
	.st15{fill:url(#SVGID_12_);}
	.st16{fill:url(#SVGID_13_);}
	.st17{fill:url(#SVGID_14_);}
	.st18{fill:url(#SVGID_15_);}
	.st19{fill:url(#SVGID_16_);}
	.st20{fill:url(#SVGID_17_);}
	.st21{fill:url(#SVGID_18_);}
	.st22{fill:url(#SVGID_19_);}
	.st23{fill:url(#SVGID_20_);}
	.st24{fill:url(#SVGID_21_);}
	.st25{fill:url(#SVGID_22_);}
	.st26{fill:url(#SVGID_23_);}
	.st27{fill:url(#SVGID_24_);}
</style>
<g id="Layer_3">
</g>
<g id="Layer_2">
	<g>
		<g>
			
				<ellipse transform="matrix(3.000150e-02 -0.9995 0.9995 3.000150e-02 -1340.303 -410.9503)" class="st0" cx="-881.9" cy="485.1" rx="107.4" ry="105.8"/>
		</g>
		
			<linearGradient id="SVGID_1_" gradientUnits="userSpaceOnUse" x1="-895.7224" y1="-378.1008" x2="-812.5339" y2="-178.1136" gradientTransform="matrix(1.0186 3.060000e-02 2.960000e-02 -0.9849 -3.626 237.0745)">
			<stop  offset="0.1684" style="stop-color:#A4B3BD"/>
			<stop  offset="0.7313" style="stop-color:#EFF1F3"/>
			<stop  offset="0.8503" style="stop-color:#FFFFFF"/>
		</linearGradient>
		<path class="st1" d="M-776.1,488c-1.8,59.3-50.6,105.9-109,104.2c-58.4-1.8-104.3-51.3-102.6-110.6c1.8-59.3,50.6-106,109-104.2
			C-820.2,379.2-774.3,428.7-776.1,488z"/>
		
			<linearGradient id="SVGID_2_" gradientUnits="userSpaceOnUse" x1="-925.8873" y1="-343.1593" x2="-838.0801" y2="-154.8561" gradientTransform="matrix(1 0 0 -1 0 236)">
			<stop  offset="0" style="stop-color:#FDFDFD"/>
			<stop  offset="0.3014" style="stop-color:#F4F4F4"/>
			<stop  offset="0.7865" style="stop-color:#DDDDDD"/>
			<stop  offset="1" style="stop-color:#D0D0D0"/>
		</linearGradient>
		<circle class="st2" cx="-882" cy="485" r="103.9"/>
	</g>
	<g>
		<path class="st3" d="M-831,520.7c0,0-10.3-11.8-22.3-25.2c-3.3-3.6-3.3-9.2-0.1-12.9c12.4-14.2,22.4-25.7,22.4-25.7l0.2-0.3
			c4.2-4.5,4.6-11.7,0.7-16.7c-4.3-5.6-12.2-6.5-17.6-2.1c0,0-11.5,10.4-25.2,22.9c-3.7,3.3-9.2,3.2-12.8-0.3
			c-14.1-14-34.1-30.6-43.2-21.2c-12.5,12.8,3.3,26.9,19.8,38.6c5,3.6,9.5,11.8,5,15.9c-6.1,5.6-12.5,12.6-12.9,13
			c-11.7,12-19.2,23.7-11.8,31.8c9,10,25.1-1.4,32.9-9.8c3.2-3.4,7.5-8.2,13-14.5c3.8-4.3,11.4-3.2,15.1,1.2
			c9.8,11.8,20.3,24.4,20.3,24.4c5.5,4.4,13.3,3.4,17.6-2.1c3.9-5.1,3.5-12.2-0.7-16.7L-831,520.7z"/>
		
			<radialGradient id="SVGID_3_" cx="-892.1374" cy="-271.9413" r="86.1209" gradientTransform="matrix(1 0 0 -1 0 236)" gradientUnits="userSpaceOnUse">
			<stop  offset="0" style="stop-color:#CB765C"/>
			<stop  offset="0.2457" style="stop-color:#C76C50"/>
			<stop  offset="0.606" style="stop-color:#C46245"/>
			<stop  offset="1" style="stop-color:#C35F41"/>
		</radialGradient>
		<path class="st4" d="M-831.9,517.9c0,0-10.3-11.5-22.3-24.7c-3.3-3.6-3.3-9-0.1-12.6c12.4-13.9,22.4-25.1,22.4-25.1l0.2-0.2
			c4.2-4.5,4.6-11.4,0.7-16.3c-4.3-5.4-12.2-6.4-17.6-2.1c0,0-11.5,10.2-25.2,22.4c-3.7,3.3-9.2,3.1-12.8-0.3
			c-14.1-13.7-34.1-29.9-43.2-20.7c-12.5,12.5,3.3,26.3,19.8,37.7c5,3.5,9.5,11.5,5,15.5c-6.1,5.5-12.5,12.3-12.9,12.7
			c-11.7,11.7-19.2,23.1-11.8,31.1c9,9.8,25.1-1.4,32.9-9.6c3.2-3.4,7.5-8,13-14.1c3.8-4.2,11.4-3.1,15.1,1.2
			c9.9,11.5,20.3,23.8,20.3,23.8c5.5,4.3,13.3,3.3,17.6-2.1c3.9-4.9,3.5-11.9-0.7-16.3L-831.9,517.9z"/>
		<g>
			
				<radialGradient id="SVGID_4_" cx="-920.6474" cy="-283.2072" r="27.2799" gradientTransform="matrix(1 0 0 -1 0 236)" gradientUnits="userSpaceOnUse">
				<stop  offset="0" style="stop-color:#CB765C"/>
				<stop  offset="0.2457" style="stop-color:#C76C50"/>
				<stop  offset="0.606" style="stop-color:#C46245"/>
				<stop  offset="1" style="stop-color:#C35F41"/>
			</radialGradient>
			<path class="st5" d="M-917.1,509.6c0.4-0.4,6.8-7.3,12.9-12.7c2.4-2.1,2.3-5.4,0.8-8.6c-0.2,1.2-0.8,2.2-1.8,3.1
				c-6.1,5.5-12.5,12.3-12.9,12.7c-10.4,10.4-17.4,20.5-13.8,28.2C-931.2,525.6-925.1,517.6-917.1,509.6z"/>
			
				<radialGradient id="SVGID_5_" cx="-844.8232" cy="-280.5829" r="23.9326" gradientTransform="matrix(1 0 0 -1 0 236)" gradientUnits="userSpaceOnUse">
				<stop  offset="0" style="stop-color:#CB765C"/>
				<stop  offset="0.2457" style="stop-color:#C76C50"/>
				<stop  offset="0.606" style="stop-color:#C46245"/>
				<stop  offset="1" style="stop-color:#C35F41"/>
			</radialGradient>
			<path class="st6" d="M-831.9,517.9c0,0-10.3-11.5-22.3-24.7c-0.6-0.6-1.1-1.4-1.4-2.1c-0.4,2.7,0.4,5.5,2.4,7.6
				c12,13.1,22.3,24.7,22.3,24.7l0.2,0.2c1.1,1.1,1.9,2.4,2.4,3.8c0.2-3.4-1-6.7-3.4-9.3L-831.9,517.9z"/>
			<path class="st7" d="M-928.9,443.6c9.1-9.1,29.1,12.5,43.2,26.2c3.5,3.4,9.1,3.6,12.8,0.3c13.8-12.2,25.2-27.8,25.2-27.8
				c5.5-4.3,13.3-3.3,17.6,2.1c0.7,0.9,1.3,2,1.8,3c0.2-2.9-0.7-6-2.7-8.5c-4.3-5.4-12.2-6.4-17.6-2.1c0,0-11.5,10.2-25.2,22.4
				c-3.7,3.3-9.2,3.1-12.8-0.3c-14.1-13.7-34.1-29.9-43.2-20.7c-4.7,4.7-5.4,9.6-3.6,14.5C-933.2,449.5-931.9,446.5-928.9,443.6z"/>
		</g>
	</g>
</g>
<g>
	
		<linearGradient id="SVGID_6_" gradientUnits="userSpaceOnUse" x1="-424.5387" y1="-708.9688" x2="-341.3495" y2="-508.9801" gradientTransform="matrix(1.0186 3.060000e-02 2.960000e-02 -0.9849 -3.626 237.0745)">
		<stop  offset="0.1684" style="stop-color:#A4B3BD"/>
		<stop  offset="0.7313" style="stop-color:#EFF1F3"/>
		<stop  offset="0.8503" style="stop-color:#FFFFFF"/>
	</linearGradient>
	<path class="st8" d="M-305.9,828.3c-1.8,59.3-50.6,106-109,104.2S-519.3,881.3-517.5,822c1.8-59.3,50.6-106,109-104.2
		C-350.1,719.5-304.1,769-305.9,828.3z"/>
	
		<linearGradient id="SVGID_7_" gradientUnits="userSpaceOnUse" x1="-455.7325" y1="-683.4479" x2="-367.9254" y2="-495.1447" gradientTransform="matrix(1 0 0 -1 0 236)">
		<stop  offset="0" style="stop-color:#FDFDFD"/>
		<stop  offset="0.3014" style="stop-color:#F4F4F4"/>
		<stop  offset="0.7865" style="stop-color:#DDDDDD"/>
		<stop  offset="1" style="stop-color:#D0D0D0"/>
	</linearGradient>
	<circle class="st9" cx="-411.8" cy="825.3" r="103.9"/>
</g>
<g class="st10">
	<g>
		
			<ellipse transform="matrix(3.000150e-02 -0.9995 0.9995 3.000150e-02 -985.772 634.9037)" class="st0" cx="-165.8" cy="825.4" rx="107.4" ry="105.8"/>
	</g>
	
		<linearGradient id="SVGID_8_" gradientUnits="userSpaceOnUse" x1="-183.2681" y1="-701.4728" x2="-100.0791" y2="-501.484" gradientTransform="matrix(1.0186 3.060000e-02 2.960000e-02 -0.9849 -3.626 237.0745)">
		<stop  offset="0.1684" style="stop-color:#A4B3BD"/>
		<stop  offset="0.7313" style="stop-color:#EFF1F3"/>
		<stop  offset="0.8503" style="stop-color:#FFFFFF"/>
	</linearGradient>
	<path class="st11" d="M-59.9,828.3c-1.8,59.3-50.6,106-109,104.2S-273.3,881.3-271.5,822s50.6-106,109-104.2
		C-104.1,719.5-58.2,769-59.9,828.3z"/>
	
		<linearGradient id="SVGID_9_" gradientUnits="userSpaceOnUse" x1="-209.7525" y1="-683.4479" x2="-121.9454" y2="-495.1447" gradientTransform="matrix(1 0 0 -1 0 236)">
		<stop  offset="0" style="stop-color:#FDFDFD"/>
		<stop  offset="0.3014" style="stop-color:#F4F4F4"/>
		<stop  offset="0.7865" style="stop-color:#DDDDDD"/>
		<stop  offset="1" style="stop-color:#D0D0D0"/>
	</linearGradient>
	<circle class="st12" cx="-165.8" cy="825.3" r="103.9"/>
</g>
<g>
	<path class="st3" d="M-339.1,784.7c-4-5.1-11.3-6-16.4-2c0,0-63.6,53.5-65.5,55.1l-25.1-22.1c-5.2-4.6-13-5-18.7-0.6
		c-6.4,5-6.6,12.3-1.6,18.7l31.2,43.1c0.1,0.2,0.3,0.4,0.5,0.6c6.3,7.4,17.4,8.3,24.9,2l69.9-81.3l0.2-0.2
		C-335.9,793.9-335.5,789.3-339.1,784.7z"/>
	
		<radialGradient id="SVGID_10_" cx="-417.188" cy="-612.3651" r="104.4226" gradientTransform="matrix(1 0 0 -1 0 236)" gradientUnits="userSpaceOnUse">
		<stop  offset="0" style="stop-color:#A0BA73"/>
		<stop  offset="0.2034" style="stop-color:#99B56A"/>
		<stop  offset="0.5839" style="stop-color:#92B05F"/>
		<stop  offset="1" style="stop-color:#8FAE5B"/>
	</radialGradient>
	<path class="st13" d="M-339.1,780.1c-4-5.1-11.3-6-16.4-2c0,0-63.6,53.5-65.5,55.1l-25.1-22.1c-5.2-4.6-13-5-18.7-0.6
		c-6.4,5-7.5,14.2-2.6,20.5l32.1,41.3c0.1,0.2,0.3,0.4,0.5,0.6c6.3,7.4,17.4,8.3,24.9,2l69.9-79.5l0.2-0.2
		C-335.9,791.2-335.5,784.7-339.1,780.1z"/>
	<path class="st7" d="M-464.7,817.8c5.6-4.4,13.5-4,18.7,0.6l20.2,23.2c1.7,1.9,4.6,2.1,6.5,0.4c13.8-12.2,63.8-56.6,63.8-56.6
		c5.1-4,12.4-3.1,16.4,2c0.9,1.1,1.5,2.3,1.9,3.6c1.2-3.6,0.6-7.7-1.9-10.9c-4-5.1-11.3-6-16.4-2c0,0-63.6,53.5-65.5,55.1
		l-25.1-22.1c-5.2-4.6-13-5-18.7-0.6c-4.8,3.7-6.6,9.7-5.2,15.2C-469.2,822.7-467.4,819.9-464.7,817.8z"/>
</g>
<g class="st10">
	<path class="st3" d="M-114.8,861c0,0-10.3-11.8-22.3-25.2c-3.3-3.6-3.3-9.2-0.1-12.9c12.4-14.2,22.4-25.7,22.4-25.7l0.2-0.3
		c4.2-4.5,4.6-11.7,0.7-16.7c-4.3-5.6-12.2-6.5-17.6-2.1c0,0-11.5,10.4-25.2,22.9c-3.7,3.3-9.2,3.2-12.8-0.3
		c-14.1-14-34.1-30.6-43.2-21.2c-12.5,12.8,3.3,26.9,19.8,38.6c5,3.5,9.5,11.8,5,15.9c-6.1,5.6-12.4,12.6-12.9,13
		c-11.7,12-19.2,23.7-11.9,31.8c9.1,10,25.1-1.4,32.9-9.8c3.2-3.4,7.5-8.2,13-14.5c3.8-4.3,11.4-3.2,15.1,1.2
		c9.9,11.8,20.3,24.4,20.3,24.4c5.5,4.4,13.3,3.4,17.6-2.2c3.9-5.1,3.5-12.2-0.7-16.7L-114.8,861z"/>
	
		<radialGradient id="SVGID_11_" cx="-176.0023" cy="-612.2297" r="86.1209" gradientTransform="matrix(1 0 0 -1 0 236)" gradientUnits="userSpaceOnUse">
		<stop  offset="0" style="stop-color:#CB765C"/>
		<stop  offset="0.2457" style="stop-color:#C76C50"/>
		<stop  offset="0.606" style="stop-color:#C46245"/>
		<stop  offset="1" style="stop-color:#C35F41"/>
	</radialGradient>
	<path class="st14" d="M-115.7,858.1c0,0-10.3-11.5-22.3-24.7c-3.3-3.5-3.3-9-0.1-12.6c12.4-13.9,22.4-25.1,22.4-25.1l0.2-0.2
		c4.2-4.5,4.6-11.4,0.7-16.3c-4.3-5.5-12.2-6.4-17.6-2.1c0,0-11.5,10.2-25.2,22.4c-3.7,3.3-9.2,3.1-12.8-0.3
		c-14.1-13.7-34.1-29.9-43.2-20.7c-12.5,12.5,3.3,26.3,19.8,37.7c5,3.5,9.5,11.5,5,15.5c-6.1,5.5-12.4,12.3-12.9,12.7
		c-11.7,11.7-19.2,23.1-11.9,31.1c9.1,9.8,25.1-1.4,32.9-9.6c3.2-3.4,7.5-8,13-14.1c3.8-4.2,11.4-3.1,15.1,1.2
		c9.9,11.5,20.3,23.8,20.3,23.8c5.5,4.3,13.3,3.3,17.6-2.1c3.9-4.9,3.5-11.9-0.7-16.3L-115.7,858.1z"/>
	<g>
		
			<radialGradient id="SVGID_12_" cx="-204.5123" cy="-623.4955" r="27.2799" gradientTransform="matrix(1 0 0 -1 0 236)" gradientUnits="userSpaceOnUse">
			<stop  offset="0" style="stop-color:#CB765C"/>
			<stop  offset="0.2457" style="stop-color:#C76C50"/>
			<stop  offset="0.606" style="stop-color:#C46245"/>
			<stop  offset="1" style="stop-color:#C35F41"/>
		</radialGradient>
		<path class="st15" d="M-200.9,849.9c0.4-0.4,6.8-7.3,12.9-12.7c2.4-2.2,2.3-5.4,0.8-8.5c-0.2,1.2-0.8,2.2-1.8,3.1
			c-6.1,5.5-12.4,12.3-12.9,12.7c-10.4,10.4-17.4,20.5-13.8,28.2C-215.1,865.8-209,857.9-200.9,849.9z"/>
		
			<radialGradient id="SVGID_13_" cx="-128.6882" cy="-620.8713" r="23.9326" gradientTransform="matrix(1 0 0 -1 0 236)" gradientUnits="userSpaceOnUse">
			<stop  offset="0" style="stop-color:#CB765C"/>
			<stop  offset="0.2457" style="stop-color:#C76C50"/>
			<stop  offset="0.606" style="stop-color:#C46245"/>
			<stop  offset="1" style="stop-color:#C35F41"/>
		</radialGradient>
		<path class="st16" d="M-115.7,858.1c0,0-10.3-11.5-22.3-24.7c-0.6-0.7-1.1-1.4-1.4-2.1c-0.4,2.7,0.4,5.5,2.4,7.6
			c12,13.2,22.3,24.7,22.3,24.7l0.2,0.2c1.1,1.1,1.9,2.4,2.4,3.8c0.2-3.3-1-6.7-3.4-9.3L-115.7,858.1z"/>
		<path class="st7" d="M-212.8,783.9c9.1-9.1,29.1,12.5,43.2,26.2c3.5,3.4,9.1,3.6,12.8,0.3c13.8-12.2,25.2-27.8,25.2-27.8
			c5.4-4.3,13.3-3.3,17.6,2.1c0.7,0.9,1.3,2,1.8,3c0.2-3-0.7-6-2.7-8.5c-4.3-5.5-12.2-6.4-17.6-2.1c0,0-11.5,10.2-25.2,22.4
			c-3.7,3.3-9.2,3.1-12.8-0.3c-14.1-13.7-34.1-29.9-43.2-20.7c-4.7,4.7-5.4,9.6-3.6,14.5C-217.1,789.8-215.7,786.8-212.8,783.9z"/>
	</g>
</g>
<g>
	
		<linearGradient id="SVGID_14_" gradientUnits="userSpaceOnUse" x1="81.6491" y1="26.0354" x2="164.8367" y2="226.0206" gradientTransform="matrix(1.0186 3.060000e-02 2.960000e-02 -0.9849 -3.626 237.0745)">
		<stop  offset="0.1684" style="stop-color:#A4B3BD"/>
		<stop  offset="0.7313" style="stop-color:#EFF1F3"/>
		<stop  offset="0.8503" style="stop-color:#FFFFFF"/>
	</linearGradient>
	<path class="st17" d="M231.4,119.9c-1.8,59.3-50.6,106-109,104.2S18.1,172.8,19.9,113.5s50.6-106,109-104.2
		C187.3,11.1,233.2,60.6,231.4,119.9z"/>
	
		<linearGradient id="SVGID_15_" gradientUnits="userSpaceOnUse" x1="81.6264" y1="24.9685" x2="169.4336" y2="213.2716" gradientTransform="matrix(1 0 0 -1 0 236)">
		<stop  offset="0" style="stop-color:#FDFDFD"/>
		<stop  offset="0.3014" style="stop-color:#F4F4F4"/>
		<stop  offset="0.7865" style="stop-color:#DDDDDD"/>
		<stop  offset="1" style="stop-color:#D0D0D0"/>
	</linearGradient>
	<circle class="st18" cx="125.5" cy="116.9" r="103.9"/>
</g>
<g>
	<g>
		
			<ellipse transform="matrix(3.000150e-02 -0.9995 0.9995 3.000150e-02 -183.1273 1418.4305)" class="st0" cx="639.3" cy="803.6" rx="107.4" ry="105.8"/>
	</g>
	
		<linearGradient id="SVGID_16_" gradientUnits="userSpaceOnUse" x1="605.7151" y1="-654.795" x2="688.9027" y2="-454.8098" gradientTransform="matrix(1.0186 3.060000e-02 2.960000e-02 -0.9849 -3.626 237.0745)">
		<stop  offset="0.1684" style="stop-color:#A4B3BD"/>
		<stop  offset="0.7313" style="stop-color:#EFF1F3"/>
		<stop  offset="0.8503" style="stop-color:#FFFFFF"/>
	</linearGradient>
	<path class="st19" d="M745.1,806.5c-1.8,59.3-50.6,106-109,104.2s-104.3-51.3-102.6-110.5s50.6-106,109-104.2
		C701,697.7,746.9,747.2,745.1,806.5z"/>
	
		<linearGradient id="SVGID_17_" gradientUnits="userSpaceOnUse" x1="595.2975" y1="-661.6179" x2="683.1047" y2="-473.3147" gradientTransform="matrix(1 0 0 -1 0 236)">
		<stop  offset="0" style="stop-color:#FDFDFD"/>
		<stop  offset="0.3014" style="stop-color:#F4F4F4"/>
		<stop  offset="0.7865" style="stop-color:#DDDDDD"/>
		<stop  offset="1" style="stop-color:#D0D0D0"/>
	</linearGradient>
	<circle class="st20" cx="639.2" cy="803.5" r="103.9"/>
</g>
<g>
	<path class="st3" d="M198.2,76.2c-4-5.1-11.3-6-16.4-2c0,0-63.6,53.5-65.5,55.1l-25.1-22.1c-5.2-4.6-13-5-18.7-0.6
		c-6.4,5-6.6,12.3-1.6,18.7l31.2,43.1c0.1,0.2,0.3,0.4,0.5,0.6c6.3,7.4,17.4,8.3,24.9,2l69.9-81.3l0.2-0.2
		C201.4,85.5,201.8,80.8,198.2,76.2z"/>
	
		<radialGradient id="SVGID_18_" cx="120.1716" cy="96.0476" r="104.4226" gradientTransform="matrix(1 0 0 -1 0 236)" gradientUnits="userSpaceOnUse">
		<stop  offset="0" style="stop-color:#A0BA73"/>
		<stop  offset="0.2034" style="stop-color:#99B56A"/>
		<stop  offset="0.5839" style="stop-color:#92B05F"/>
		<stop  offset="1" style="stop-color:#8FAE5B"/>
	</radialGradient>
	<path class="st21" d="M198.2,71.7c-4-5.1-11.3-6-16.4-2c0,0-63.6,53.5-65.5,55.1l-25.1-22.1c-5.2-4.6-13-5-18.7-0.6
		c-6.4,5-7.5,14.2-2.6,20.6l32.1,41.3c0.1,0.2,0.3,0.4,0.5,0.6c6.3,7.4,17.4,8.3,24.9,2l69.9-79.5l0.2-0.2
		C201.4,82.8,201.8,76.3,198.2,71.7z"/>
	<path class="st7" d="M72.6,109.4c5.6-4.4,13.5-4,18.7,0.6l20.2,23.2c1.7,1.9,4.6,2.1,6.5,0.4c13.8-12.2,63.8-56.6,63.8-56.6
		c5.1-4,12.4-3.1,16.4,2c0.9,1.1,1.5,2.3,1.9,3.6c1.2-3.6,0.6-7.7-1.9-10.9c-4-5.1-11.3-6-16.4-2c0,0-63.6,53.5-65.5,55.1
		l-25.1-22.1c-5.2-4.6-13-5-18.7-0.6c-4.8,3.7-6.6,9.7-5.2,15.2C68.2,114.3,69.9,111.5,72.6,109.4z"/>
</g>
<g>
	<path class="st3" d="M690.2,839.2c0,0-10.3-11.8-22.3-25.2c-3.3-3.6-3.3-9.2-0.1-12.9c12.4-14.2,22.4-25.7,22.4-25.7l0.2-0.3
		c4.2-4.5,4.6-11.7,0.7-16.7c-4.3-5.6-12.2-6.5-17.6-2.1c0,0-11.5,10.4-25.2,22.9c-3.7,3.3-9.2,3.2-12.8-0.3
		c-14.1-14-34.1-30.6-43.2-21.2c-12.5,12.8,3.3,26.9,19.8,38.6c5,3.5,9.5,11.8,5,15.9c-6.1,5.6-12.5,12.6-12.9,13
		c-11.7,12-19.2,23.7-11.8,31.8c9,10,25.1-1.4,32.9-9.8c3.2-3.4,7.5-8.2,13-14.5c3.8-4.3,11.4-3.2,15.1,1.2
		c9.8,11.8,20.3,24.4,20.3,24.4c5.5,4.4,13.3,3.4,17.6-2.2c3.9-5.1,3.5-12.2-0.7-16.7L690.2,839.2z"/>
	
		<radialGradient id="SVGID_19_" cx="629.0384" cy="-590.4033" r="86.1209" gradientTransform="matrix(1 0 0 -1 0 236)" gradientUnits="userSpaceOnUse">
		<stop  offset="0" style="stop-color:#CB765C"/>
		<stop  offset="0.2457" style="stop-color:#C76C50"/>
		<stop  offset="0.606" style="stop-color:#C46245"/>
		<stop  offset="1" style="stop-color:#C35F41"/>
	</radialGradient>
	<path class="st22" d="M689.3,836.3c0,0-10.3-11.5-22.3-24.7c-3.3-3.5-3.3-9-0.1-12.6c12.4-13.9,22.4-25.1,22.4-25.1l0.2-0.2
		c4.2-4.5,4.6-11.4,0.7-16.3c-4.3-5.5-12.2-6.4-17.6-2.1c0,0-11.5,10.2-25.2,22.4c-3.7,3.3-9.2,3.1-12.8-0.3
		c-14.1-13.7-34.1-29.9-43.2-20.7c-12.5,12.5,3.3,26.3,19.8,37.7c5,3.5,9.5,11.5,5,15.5c-6.1,5.5-12.5,12.3-12.9,12.7
		c-11.7,11.7-19.2,23.1-11.8,31.1c9,9.8,25.1-1.4,32.9-9.6c3.2-3.4,7.5-8,13-14.1c3.8-4.2,11.4-3.1,15.1,1.2
		c9.8,11.5,20.3,23.8,20.3,23.8c5.5,4.3,13.3,3.3,17.6-2.1c3.9-4.9,3.5-11.9-0.7-16.3L689.3,836.3z"/>
	<g>
		
			<radialGradient id="SVGID_20_" cx="600.5283" cy="-601.6691" r="27.2799" gradientTransform="matrix(1 0 0 -1 0 236)" gradientUnits="userSpaceOnUse">
			<stop  offset="0" style="stop-color:#CB765C"/>
			<stop  offset="0.2457" style="stop-color:#C76C50"/>
			<stop  offset="0.606" style="stop-color:#C46245"/>
			<stop  offset="1" style="stop-color:#C35F41"/>
		</radialGradient>
		<path class="st23" d="M604.1,828c0.4-0.4,6.8-7.3,12.9-12.7c2.4-2.2,2.3-5.4,0.8-8.5c-0.2,1.2-0.8,2.2-1.8,3.1
			c-6.1,5.5-12.5,12.3-12.9,12.7c-10.4,10.4-17.4,20.5-13.8,28.2C590,844,596,836.1,604.1,828z"/>
		
			<radialGradient id="SVGID_21_" cx="676.3525" cy="-599.0449" r="23.9326" gradientTransform="matrix(1 0 0 -1 0 236)" gradientUnits="userSpaceOnUse">
			<stop  offset="0" style="stop-color:#CB765C"/>
			<stop  offset="0.2457" style="stop-color:#C76C50"/>
			<stop  offset="0.606" style="stop-color:#C46245"/>
			<stop  offset="1" style="stop-color:#C35F41"/>
		</radialGradient>
		<path class="st24" d="M689.3,836.3c0,0-10.3-11.5-22.3-24.7c-0.6-0.7-1.1-1.4-1.5-2.1c-0.4,2.7,0.4,5.5,2.4,7.6
			c12,13.2,22.3,24.7,22.3,24.7l0.2,0.2c1.1,1.1,1.9,2.4,2.5,3.8c0.2-3.3-1-6.7-3.4-9.3L689.3,836.3z"/>
		<path class="st7" d="M592.3,762.1c9.1-9.1,29.1,12.5,43.2,26.2c3.5,3.4,9.1,3.6,12.8,0.3c13.8-12.2,25.2-27.8,25.2-27.8
			c5.5-4.3,13.3-3.3,17.6,2.1c0.7,0.9,1.3,2,1.8,3c0.2-3-0.7-6-2.7-8.5c-4.3-5.5-12.2-6.4-17.6-2.1c0,0-11.5,10.2-25.2,22.4
			c-3.7,3.3-9.2,3.1-12.8-0.3c-14.1-13.7-34.1-29.9-43.2-20.7c-4.7,4.7-5.4,9.6-3.6,14.5C588,768,589.3,765,592.3,762.1z"/>
	</g>
</g>
<g class="st10">
	
		<linearGradient id="SVGID_22_" gradientUnits="userSpaceOnUse" x1="-493.4458" y1="-269.4811" x2="-410.2575" y2="-69.4944" gradientTransform="matrix(1.0186 3.060000e-02 2.960000e-02 -0.9849 -3.626 237.0745)">
		<stop  offset="0.1684" style="stop-color:#A4B3BD"/>
		<stop  offset="0.7313" style="stop-color:#EFF1F3"/>
		<stop  offset="0.8503" style="stop-color:#FFFFFF"/>
	</linearGradient>
	<path class="st25" d="M-363.1,393.4c-1.8,59.3-50.6,106-109,104.2c-58.4-1.8-104.3-51.3-102.6-110.6s50.6-105.9,109-104.2
		C-407.2,284.6-361.3,334.1-363.1,393.4z"/>
	
		<linearGradient id="SVGID_23_" gradientUnits="userSpaceOnUse" x1="-512.9026" y1="-248.4879" x2="-425.0953" y2="-60.1847" gradientTransform="matrix(1 0 0 -1 0 236)">
		<stop  offset="0" style="stop-color:#FDFDFD"/>
		<stop  offset="0.3014" style="stop-color:#F4F4F4"/>
		<stop  offset="0.7865" style="stop-color:#DDDDDD"/>
		<stop  offset="1" style="stop-color:#D0D0D0"/>
	</linearGradient>
	<circle class="st26" cx="-469" cy="390.3" r="103.9"/>
</g>
<g class="st10">
	<path class="st3" d="M-396.3,349.7c-4-5.1-11.3-6-16.4-2c0,0-63.6,53.5-65.5,55.1l-25.1-22.1c-5.2-4.6-13-5-18.7-0.6
		c-6.4,5-6.6,12.3-1.6,18.7l31.2,43.1c0.1,0.2,0.3,0.4,0.5,0.6c6.3,7.4,17.4,8.3,24.9,2l69.9-81.3l0.2-0.2
		C-393.1,358.9-392.7,354.3-396.3,349.7z"/>
	
		<radialGradient id="SVGID_24_" cx="-474.3618" cy="-177.4104" r="104.4226" gradientTransform="matrix(1 0 0 -1 0 236)" gradientUnits="userSpaceOnUse">
		<stop  offset="0" style="stop-color:#A0BA73"/>
		<stop  offset="0.2034" style="stop-color:#99B56A"/>
		<stop  offset="0.5839" style="stop-color:#92B05F"/>
		<stop  offset="1" style="stop-color:#8FAE5B"/>
	</radialGradient>
	<path class="st27" d="M-396.3,345.1c-4-5.1-11.3-5.9-16.4-2c0,0-63.6,53.5-65.5,55.1l-25.1-22.1c-5.2-4.6-13-5-18.7-0.6
		c-6.4,5-7.5,14.2-2.6,20.5l32.1,41.3c0.1,0.2,0.3,0.4,0.5,0.6c6.3,7.4,17.4,8.3,24.9,2l69.9-79.5l0.2-0.2
		C-393.1,356.2-392.7,349.7-396.3,345.1z"/>
	<path class="st7" d="M-521.9,382.9c5.7-4.4,13.5-4,18.7,0.6l20.2,23.2c1.7,1.9,4.6,2.1,6.5,0.4c13.8-12.2,63.8-56.6,63.8-56.6
		c5.1-4,12.4-3.1,16.4,2c0.9,1.1,1.5,2.3,1.9,3.6c1.2-3.6,0.6-7.7-1.9-10.9c-4-5.1-11.3-5.9-16.4-2c0,0-63.6,53.5-65.5,55.1
		l-25.1-22.1c-5.2-4.6-13-5-18.7-0.6c-4.8,3.7-6.6,9.7-5.2,15.2C-526.3,387.8-524.6,385-521.9,382.9z"/>
</g>
</svg>
