<?xml version="1.0" encoding="utf-8"?>
<!-- Generator: Adobe Illustrator 24.2.2, SVG Export Plug-In . SVG Version: 6.00 Build 0)  -->
<svg version="1.1" id="Calque_1" xmlns="http://www.w3.org/2000/svg" xmlns:xlink="http://www.w3.org/1999/xlink" x="0px" y="0px"
	 viewBox="0 0 255 234" style="enable-background:new 0 0 255 234;" xml:space="preserve">
<style type="text/css">
	.st0{opacity:0.33;}
	.st1{fill:url(#SVGID_1_);}
	.st2{fill:url(#SVGID_2_);}
	.st3{fill:#FFFFFF;}
	.st4{fill:url(#SVGID_3_);}
	.st5{fill:#E0E0E0;}
</style>
<g id="Layer_3">
</g>
<g class="st0">
	
		<linearGradient id="SVGID_1_" gradientUnits="userSpaceOnUse" x1="82.5009" y1="25.7776" x2="165.6892" y2="225.7643" gradientTransform="matrix(1.0186 3.060000e-02 2.960000e-02 -0.9849 -3.626 237.0745)">
		<stop  offset="0.1684" style="stop-color:#A4B3BD"/>
		<stop  offset="0.7313" style="stop-color:#EFF1F3"/>
		<stop  offset="0.8503" style="stop-color:#FFFFFF"/>
	</linearGradient>
	<path class="st1" d="M232.3,120.2c-1.8,59.3-50.6,105.9-109,104.2c-58.4-1.8-104.3-51.3-102.6-110.6S71.3,7.9,129.7,9.6
		C188.2,11.4,234.1,60.9,232.3,120.2z"/>
	
		<linearGradient id="SVGID_2_" gradientUnits="userSpaceOnUse" x1="82.4964" y1="24.6884" x2="170.3036" y2="212.9916" gradientTransform="matrix(1 0 0 -1 0 236)">
		<stop  offset="0" style="stop-color:#FDFDFD"/>
		<stop  offset="0.3014" style="stop-color:#F4F4F4"/>
		<stop  offset="0.7865" style="stop-color:#DDDDDD"/>
		<stop  offset="1" style="stop-color:#D0D0D0"/>
	</linearGradient>
	<circle class="st2" cx="126.4" cy="117.2" r="103.9"/>
</g>
<g class="st0">
	<path class="st3" d="M199.1,76.5c-4-5.1-11.3-5.9-16.4-2c0,0-63.6,53.5-65.5,55.1l-25.1-22.1c-5.2-4.6-13-5-18.7-0.6
		c-6.4,5-6.6,12.3-1.6,18.7l31.2,43.1c0.1,0.2,0.3,0.4,0.5,0.6c6.3,7.4,17.4,8.3,24.9,2l69.9-81.3l0.2-0.2
		C202.3,85.8,202.7,81.1,199.1,76.5z"/>
	
		<radialGradient id="SVGID_3_" cx="121.0372" cy="95.7659" r="104.4226" gradientTransform="matrix(1 0 0 -1 0 236)" gradientUnits="userSpaceOnUse">
		<stop  offset="0" style="stop-color:#A0BA73"/>
		<stop  offset="0.2034" style="stop-color:#99B56A"/>
		<stop  offset="0.5839" style="stop-color:#92B05F"/>
		<stop  offset="1" style="stop-color:#8FAE5B"/>
	</radialGradient>
	<path class="st4" d="M199.1,72c-4-5.1-11.3-5.9-16.4-2c0,0-63.6,53.5-65.5,55.1L92.1,103c-5.2-4.6-13-5-18.7-0.6
		c-6.4,5-7.5,14.2-2.6,20.6l32.1,41.3c0.1,0.2,0.3,0.4,0.5,0.6c6.3,7.4,17.4,8.3,24.9,2l69.9-79.5l0.2-0.2
		C202.3,83,202.7,76.6,199.1,72z"/>
	<path class="st5" d="M73.5,109.7c5.6-4.4,13.5-4,18.7,0.6l20.2,23.2c1.7,1.9,4.6,2.1,6.5,0.4c13.8-12.2,63.8-56.6,63.8-56.6
		c5.1-4,12.4-3.1,16.4,2c0.9,1.1,1.5,2.3,1.9,3.6c1.2-3.6,0.6-7.7-1.9-10.9c-4-5.1-11.3-6-16.4-2c0,0-63.6,53.5-65.5,55.1L92.1,103
		c-5.2-4.6-13-5-18.7-0.6c-4.8,3.7-6.6,9.7-5.2,15.2C69.1,114.6,70.8,111.8,73.5,109.7z"/>
</g>
</svg>
