<?xml version="1.0" encoding="utf-8"?>
<!-- Generator: Adobe Illustrator 24.2.2, SVG Export Plug-In . SVG Version: 6.00 Build 0)  -->
<svg version="1.1" id="Calque_1" xmlns="http://www.w3.org/2000/svg" xmlns:xlink="http://www.w3.org/1999/xlink" x="0px" y="0px"
	 viewBox="0 0 255 234" style="enable-background:new 0 0 255 234;" xml:space="preserve">
<style type="text/css">
	.st0{opacity:0.33;}
	.st1{fill:url(#SVGID_1_);}
	.st2{fill:url(#SVGID_2_);}
	.st3{fill:#FFFFFF;}
	.st4{fill:url(#SVGID_3_);}
	.st5{fill:#E0E0E0;}
	.st6{fill:#595959;}
	.st7{fill:url(#SVGID_4_);}
	.st8{fill:url(#SVGID_5_);}
	.st9{fill:url(#SVGID_6_);}
	.st10{fill:url(#SVGID_7_);}
	.st11{fill:url(#SVGID_8_);}
	.st12{fill:url(#SVGID_9_);}
	.st13{fill:url(#SVGID_10_);}
	.st14{fill:url(#SVGID_11_);}
	.st15{fill:url(#SVGID_12_);}
	.st16{fill:url(#SVGID_13_);}
	.st17{fill:url(#SVGID_14_);}
	.st18{fill:url(#SVGID_15_);}
	.st19{fill:url(#SVGID_16_);}
	.st20{fill:url(#SVGID_17_);}
	.st21{fill:url(#SVGID_18_);}
	.st22{fill:url(#SVGID_19_);}
	.st23{fill:url(#SVGID_20_);}
	.st24{fill:url(#SVGID_21_);}
	.st25{fill:url(#SVGID_22_);}
	.st26{fill:url(#SVGID_23_);}
	.st27{fill:url(#SVGID_24_);}
</style>
<g id="Layer_3">
</g>
<g class="st0">
	
		<linearGradient id="SVGID_1_" gradientUnits="userSpaceOnUse" x1="-337.9484" y1="-586.7371" x2="-254.76" y2="-386.7504" gradientTransform="matrix(1.0186 3.060000e-02 2.960000e-02 -0.9849 -3.626 237.0745)">
		<stop  offset="0.1684" style="stop-color:#A4B3BD"/>
		<stop  offset="0.7313" style="stop-color:#EFF1F3"/>
		<stop  offset="0.8503" style="stop-color:#FFFFFF"/>
	</linearGradient>
	<path class="st1" d="M-214.1,710.6c-1.8,59.3-50.6,105.9-109,104.2c-58.4-1.8-104.3-51.3-102.6-110.6
		c1.8-59.3,50.6-105.9,109-104.2C-258.2,601.8-212.3,651.3-214.1,710.6z"/>
	
		<linearGradient id="SVGID_2_" gradientUnits="userSpaceOnUse" x1="-363.9037" y1="-565.7116" x2="-276.0964" y2="-377.4084" gradientTransform="matrix(1 0 0 -1 0 236)">
		<stop  offset="0" style="stop-color:#FDFDFD"/>
		<stop  offset="0.3014" style="stop-color:#F4F4F4"/>
		<stop  offset="0.7865" style="stop-color:#DDDDDD"/>
		<stop  offset="1" style="stop-color:#D0D0D0"/>
	</linearGradient>
	<circle class="st2" cx="-320" cy="707.6" r="103.9"/>
</g>
<g class="st0">
	<path class="st3" d="M-247.3,666.9c-4-5.1-11.3-6-16.4-2c0,0-63.6,53.5-65.5,55.1l-25.1-22.1c-5.2-4.6-13-5-18.7-0.6
		c-6.4,5-6.6,12.3-1.6,18.7l31.2,43.1c0.1,0.2,0.3,0.4,0.5,0.6c6.3,7.4,17.4,8.3,24.9,2l69.9-81.3l0.2-0.2
		C-244.1,676.2-243.7,671.5-247.3,666.9z"/>
	
		<radialGradient id="SVGID_3_" cx="-325.3628" cy="-494.6341" r="104.4226" gradientTransform="matrix(1 0 0 -1 0 236)" gradientUnits="userSpaceOnUse">
		<stop  offset="0" style="stop-color:#A0BA73"/>
		<stop  offset="0.2034" style="stop-color:#99B56A"/>
		<stop  offset="0.5839" style="stop-color:#92B05F"/>
		<stop  offset="1" style="stop-color:#8FAE5B"/>
	</radialGradient>
	<path class="st4" d="M-247.3,662.4c-4-5.1-11.3-6-16.4-2c0,0-63.6,53.5-65.5,55.1l-25.1-22.1c-5.2-4.6-13-5-18.7-0.6
		c-6.4,5-7.5,14.2-2.6,20.5l32.1,41.3c0.1,0.2,0.3,0.4,0.5,0.6c6.3,7.4,17.4,8.3,24.9,2l69.9-79.5l0.2-0.2
		C-244.1,673.4-243.7,667-247.3,662.4z"/>
	<path class="st5" d="M-372.9,700.1c5.6-4.4,13.5-4,18.7,0.6l20.2,23.2c1.7,1.9,4.6,2.1,6.5,0.4c13.8-12.2,63.8-56.6,63.8-56.6
		c5.1-4,12.4-3.1,16.4,2c0.9,1.1,1.5,2.3,1.9,3.6c1.2-3.6,0.6-7.7-1.9-10.9c-4-5.1-11.3-6-16.4-2c0,0-63.6,53.5-65.5,55.1
		l-25.1-22.1c-5.2-4.6-13-5-18.7-0.6c-4.8,3.7-6.6,9.7-5.2,15.2C-377.3,705-375.6,702.2-372.9,700.1z"/>
</g>
<g id="Layer_2">
	<g>
		<g>
			
				<ellipse transform="matrix(3.000150e-02 -0.9995 0.9995 3.000150e-02 -2282.5229 -412.6561)" class="st6" cx="-1353.9" cy="969.7" rx="107.4" ry="105.8"/>
		</g>
		
			<linearGradient id="SVGID_4_" gradientUnits="userSpaceOnUse" x1="-1344.389" y1="-884.0799" x2="-1261.2006" y2="-684.0927" gradientTransform="matrix(1.0186 3.060000e-02 2.960000e-02 -0.9849 -3.626 237.0745)">
			<stop  offset="0.1684" style="stop-color:#A4B3BD"/>
			<stop  offset="0.7313" style="stop-color:#EFF1F3"/>
			<stop  offset="0.8503" style="stop-color:#FFFFFF"/>
		</linearGradient>
		<path class="st7" d="M-1248.1,972.6c-1.8,59.3-50.6,106-109,104.2c-58.4-1.8-104.3-51.3-102.6-110.5c1.8-59.3,50.6-106,109-104.2
			C-1292.2,863.8-1246.3,913.3-1248.1,972.6z"/>
		
			<linearGradient id="SVGID_5_" gradientUnits="userSpaceOnUse" x1="-1397.8761" y1="-827.7689" x2="-1310.0688" y2="-639.4657" gradientTransform="matrix(1 0 0 -1 0 236)">
			<stop  offset="0" style="stop-color:#FDFDFD"/>
			<stop  offset="0.3014" style="stop-color:#F4F4F4"/>
			<stop  offset="0.7865" style="stop-color:#DDDDDD"/>
			<stop  offset="1" style="stop-color:#D0D0D0"/>
		</linearGradient>
		<circle class="st8" cx="-1354" cy="969.6" r="103.9"/>
	</g>
	<g>
		<path class="st3" d="M-1303,1005.3c0,0-10.3-11.8-22.3-25.2c-3.3-3.6-3.3-9.2-0.1-12.9c12.4-14.2,22.4-25.7,22.4-25.7l0.2-0.3
			c4.2-4.5,4.6-11.7,0.7-16.7c-4.3-5.6-12.2-6.5-17.6-2.2c0,0-11.5,10.4-25.2,22.9c-3.7,3.3-9.2,3.2-12.8-0.3
			c-14.1-14-34.1-30.6-43.2-21.2c-12.5,12.8,3.3,26.9,19.8,38.6c5,3.6,9.5,11.8,5,15.9c-6.1,5.6-12.5,12.6-12.9,13
			c-11.7,12-19.2,23.7-11.8,31.8c9,10,25.1-1.4,32.9-9.8c3.2-3.4,7.5-8.2,13-14.5c3.8-4.3,11.4-3.2,15.1,1.2
			c9.8,11.8,20.3,24.4,20.3,24.4c5.5,4.4,13.3,3.4,17.6-2.1c3.9-5.1,3.5-12.2-0.7-16.7L-1303,1005.3z"/>
		
			<radialGradient id="SVGID_6_" cx="-1364.1262" cy="-756.5509" r="86.1209" gradientTransform="matrix(1 0 0 -1 0 236)" gradientUnits="userSpaceOnUse">
			<stop  offset="0" style="stop-color:#CB765C"/>
			<stop  offset="0.2457" style="stop-color:#C76C50"/>
			<stop  offset="0.606" style="stop-color:#C46245"/>
			<stop  offset="1" style="stop-color:#C35F41"/>
		</radialGradient>
		<path class="st9" d="M-1303.9,1002.5c0,0-10.3-11.5-22.3-24.7c-3.3-3.5-3.3-9-0.1-12.6c12.4-13.9,22.4-25.1,22.4-25.1l0.2-0.2
			c4.2-4.5,4.6-11.4,0.7-16.3c-4.3-5.5-12.2-6.4-17.6-2.1c0,0-11.5,10.2-25.2,22.4c-3.7,3.3-9.2,3.1-12.8-0.3
			c-14.1-13.7-34.1-29.9-43.2-20.7c-12.5,12.5,3.3,26.3,19.8,37.7c5,3.5,9.5,11.5,5,15.6c-6.1,5.5-12.5,12.3-12.9,12.7
			c-11.7,11.7-19.2,23.1-11.8,31.1c9,9.8,25.1-1.4,32.9-9.6c3.2-3.4,7.5-8,13-14.1c3.8-4.2,11.4-3.1,15.1,1.2
			c9.8,11.5,20.3,23.9,20.3,23.9c5.4,4.3,13.3,3.3,17.6-2.1c3.9-4.9,3.5-11.9-0.7-16.3L-1303.9,1002.5z"/>
		<g>
			
				<radialGradient id="SVGID_7_" cx="-1392.6362" cy="-767.8168" r="27.2799" gradientTransform="matrix(1 0 0 -1 0 236)" gradientUnits="userSpaceOnUse">
				<stop  offset="0" style="stop-color:#CB765C"/>
				<stop  offset="0.2457" style="stop-color:#C76C50"/>
				<stop  offset="0.606" style="stop-color:#C46245"/>
				<stop  offset="1" style="stop-color:#C35F41"/>
			</radialGradient>
			<path class="st10" d="M-1389.1,994.2c0.4-0.4,6.8-7.3,12.9-12.7c2.4-2.1,2.3-5.4,0.8-8.5c-0.2,1.2-0.8,2.2-1.8,3.1
				c-6.1,5.5-12.4,12.3-12.9,12.7c-10.4,10.4-17.4,20.5-13.8,28.2C-1403.2,1010.2-1397.1,1002.2-1389.1,994.2z"/>
			
				<radialGradient id="SVGID_8_" cx="-1316.812" cy="-765.1925" r="23.9326" gradientTransform="matrix(1 0 0 -1 0 236)" gradientUnits="userSpaceOnUse">
				<stop  offset="0" style="stop-color:#CB765C"/>
				<stop  offset="0.2457" style="stop-color:#C76C50"/>
				<stop  offset="0.606" style="stop-color:#C46245"/>
				<stop  offset="1" style="stop-color:#C35F41"/>
			</radialGradient>
			<path class="st11" d="M-1303.9,1002.5c0,0-10.3-11.5-22.3-24.7c-0.6-0.6-1.1-1.4-1.4-2.1c-0.4,2.7,0.4,5.5,2.4,7.6
				c12,13.1,22.3,24.7,22.3,24.7l0.2,0.2c1.1,1.1,1.9,2.4,2.5,3.8c0.2-3.3-1-6.7-3.4-9.3L-1303.9,1002.5z"/>
			<path class="st5" d="M-1400.9,928.2c9.1-9.1,29.1,12.5,43.2,26.2c3.5,3.4,9.1,3.6,12.8,0.3c13.8-12.2,25.2-27.8,25.2-27.8
				c5.4-4.3,13.3-3.3,17.6,2.1c0.7,0.9,1.3,2,1.8,3c0.2-3-0.7-6-2.7-8.5c-4.3-5.4-12.2-6.4-17.6-2.1c0,0-11.5,10.2-25.2,22.4
				c-3.7,3.3-9.2,3.1-12.8-0.3c-14.1-13.7-34.1-29.9-43.2-20.7c-4.7,4.7-5.4,9.6-3.6,14.5C-1405.2,934.2-1403.9,931.1-1400.9,928.2z
				"/>
		</g>
	</g>
</g>
<g>
	
		<linearGradient id="SVGID_9_" gradientUnits="userSpaceOnUse" x1="-873.2053" y1="-1214.9479" x2="-790.0162" y2="-1014.9592" gradientTransform="matrix(1.0186 3.060000e-02 2.960000e-02 -0.9849 -3.626 237.0745)">
		<stop  offset="0.1684" style="stop-color:#A4B3BD"/>
		<stop  offset="0.7313" style="stop-color:#EFF1F3"/>
		<stop  offset="0.8503" style="stop-color:#FFFFFF"/>
	</linearGradient>
	<path class="st12" d="M-777.9,1312.9c-1.8,59.3-50.6,105.9-109,104.2s-104.3-51.3-102.6-110.5c1.8-59.3,50.6-106,109-104.2
		C-822.1,1204.1-776.1,1253.6-777.9,1312.9z"/>
	
		<linearGradient id="SVGID_10_" gradientUnits="userSpaceOnUse" x1="-927.7214" y1="-1168.0575" x2="-839.9142" y2="-979.7543" gradientTransform="matrix(1 0 0 -1 0 236)">
		<stop  offset="0" style="stop-color:#FDFDFD"/>
		<stop  offset="0.3014" style="stop-color:#F4F4F4"/>
		<stop  offset="0.7865" style="stop-color:#DDDDDD"/>
		<stop  offset="1" style="stop-color:#D0D0D0"/>
	</linearGradient>
	<circle class="st13" cx="-883.8" cy="1309.9" r="103.9"/>
</g>
<g class="st0">
	<g>
		
			<ellipse transform="matrix(3.000150e-02 -0.9995 0.9995 3.000150e-02 6.0807 242.761)" class="st6" cx="128.1" cy="118.2" rx="107.4" ry="105.8"/>
	</g>
	
		<linearGradient id="SVGID_11_" gradientUnits="userSpaceOnUse" x1="84.1424" y1="24.7828" x2="167.3315" y2="224.7715" gradientTransform="matrix(1.0186 3.060000e-02 2.960000e-02 -0.9849 -3.626 237.0745)">
		<stop  offset="0.1684" style="stop-color:#A4B3BD"/>
		<stop  offset="0.7313" style="stop-color:#EFF1F3"/>
		<stop  offset="0.8503" style="stop-color:#FFFFFF"/>
	</linearGradient>
	<path class="st14" d="M233.9,121.2c-1.8,59.3-50.6,106-109,104.2S20.6,174.2,22.4,114.9s50.6-106,109-104.2
		C189.8,12.4,235.7,61.9,233.9,121.2z"/>
	
		<linearGradient id="SVGID_12_" gradientUnits="userSpaceOnUse" x1="84.129" y1="23.6584" x2="171.9362" y2="211.9616" gradientTransform="matrix(1 0 0 -1 0 236)">
		<stop  offset="0" style="stop-color:#FDFDFD"/>
		<stop  offset="0.3014" style="stop-color:#F4F4F4"/>
		<stop  offset="0.7865" style="stop-color:#DDDDDD"/>
		<stop  offset="1" style="stop-color:#D0D0D0"/>
	</linearGradient>
	<circle class="st15" cx="128" cy="118.2" r="103.9"/>
</g>
<g>
	<path class="st3" d="M-811.1,1269.3c-4-5.1-11.3-6-16.4-2c0,0-63.6,53.5-65.5,55.1l-25.1-22.1c-5.2-4.6-13-5-18.7-0.6
		c-6.4,5-6.6,12.3-1.6,18.7l31.2,43.1c0.1,0.2,0.3,0.4,0.5,0.6c6.3,7.4,17.4,8.3,24.8,2l69.9-81.3l0.2-0.2
		C-807.9,1278.5-807.5,1273.9-811.1,1269.3z"/>
	
		<radialGradient id="SVGID_13_" cx="-889.1769" cy="-1096.9746" r="104.4226" gradientTransform="matrix(1 0 0 -1 0 236)" gradientUnits="userSpaceOnUse">
		<stop  offset="0" style="stop-color:#A0BA73"/>
		<stop  offset="0.2034" style="stop-color:#99B56A"/>
		<stop  offset="0.5839" style="stop-color:#92B05F"/>
		<stop  offset="1" style="stop-color:#8FAE5B"/>
	</radialGradient>
	<path class="st16" d="M-811.1,1264.7c-4-5.1-11.3-5.9-16.4-2c0,0-63.6,53.5-65.5,55.1l-25.1-22.1c-5.2-4.6-13-5-18.7-0.6
		c-6.4,5-7.5,14.2-2.6,20.5l32.1,41.3c0.1,0.2,0.3,0.4,0.5,0.6c6.3,7.4,17.4,8.3,24.8,2l69.9-79.5l0.2-0.2
		C-807.9,1275.8-807.5,1269.3-811.1,1264.7z"/>
	<path class="st5" d="M-936.7,1302.5c5.7-4.4,13.5-4,18.7,0.6l20.2,23.2c1.7,1.9,4.6,2.1,6.5,0.4c13.8-12.2,63.8-56.6,63.8-56.6
		c5.1-4,12.4-3.1,16.4,2c0.9,1.1,1.5,2.3,1.9,3.6c1.2-3.6,0.6-7.7-1.9-10.9c-4-5.1-11.3-6-16.4-2c0,0-63.6,53.5-65.5,55.1
		l-25.1-22.1c-5.2-4.6-13-5-18.7-0.6c-4.8,3.7-6.6,9.7-5.2,15.2C-941.1,1307.4-939.4,1304.5-936.7,1302.5z"/>
</g>
<g class="st0">
	<path class="st3" d="M179,153.9c0,0-10.3-11.8-22.3-25.2c-3.3-3.6-3.3-9.2-0.1-12.9c12.4-14.2,22.4-25.7,22.4-25.7l0.2-0.3
		c4.2-4.5,4.6-11.7,0.7-16.7c-4.3-5.6-12.2-6.5-17.6-2.1c0,0-11.5,10.4-25.2,22.9c-3.7,3.3-9.2,3.2-12.8-0.3
		c-14.1-14-34.1-30.6-43.2-21.2c-12.5,12.8,3.3,26.9,19.8,38.6c5,3.5,9.5,11.8,5,15.9c-6.1,5.6-12.4,12.6-12.9,13
		c-11.7,12-19.2,23.7-11.9,31.8c9.1,10,25.1-1.4,32.9-9.8c3.2-3.4,7.5-8.2,13-14.5c3.8-4.3,11.4-3.2,15.1,1.2
		c9.8,11.8,20.3,24.4,20.3,24.4c5.4,4.4,13.3,3.4,17.6-2.2c3.9-5.1,3.5-12.2-0.7-16.7L179,153.9z"/>
	
		<radialGradient id="SVGID_14_" cx="117.8792" cy="94.8766" r="86.1209" gradientTransform="matrix(1 0 0 -1 0 236)" gradientUnits="userSpaceOnUse">
		<stop  offset="0" style="stop-color:#CB765C"/>
		<stop  offset="0.2457" style="stop-color:#C76C50"/>
		<stop  offset="0.606" style="stop-color:#C46245"/>
		<stop  offset="1" style="stop-color:#C35F41"/>
	</radialGradient>
	<path class="st17" d="M178.1,151c0,0-10.3-11.5-22.3-24.7c-3.3-3.5-3.3-9-0.1-12.6c12.4-13.9,22.4-25.1,22.4-25.1l0.2-0.2
		c4.2-4.5,4.6-11.4,0.7-16.3c-4.3-5.5-12.2-6.4-17.6-2.1c0,0-11.5,10.2-25.2,22.4c-3.7,3.3-9.2,3.1-12.8-0.3
		c-14.1-13.7-34.1-29.9-43.2-20.7C67.7,83.8,83.5,97.6,99.9,109c5,3.5,9.5,11.5,5,15.5c-6.1,5.5-12.4,12.3-12.9,12.7
		c-11.7,11.7-19.2,23.1-11.9,31.1c9.1,9.8,25.1-1.4,32.9-9.6c3.2-3.4,7.5-8,13-14.1c3.8-4.2,11.4-3.1,15.1,1.2
		c9.8,11.5,20.3,23.8,20.3,23.8c5.4,4.3,13.3,3.3,17.6-2.1c3.9-4.9,3.5-11.9-0.7-16.3L178.1,151z"/>
	<g>
		
			<radialGradient id="SVGID_15_" cx="89.3692" cy="83.6108" r="27.2799" gradientTransform="matrix(1 0 0 -1 0 236)" gradientUnits="userSpaceOnUse">
			<stop  offset="0" style="stop-color:#CB765C"/>
			<stop  offset="0.2457" style="stop-color:#C76C50"/>
			<stop  offset="0.606" style="stop-color:#C46245"/>
			<stop  offset="1" style="stop-color:#C35F41"/>
		</radialGradient>
		<path class="st18" d="M92.9,142.8c0.4-0.4,6.8-7.3,12.9-12.7c2.4-2.2,2.3-5.4,0.8-8.5c-0.2,1.2-0.8,2.2-1.8,3.1
			c-6.1,5.5-12.4,12.3-12.9,12.7c-10.4,10.4-17.4,20.5-13.8,28.2C78.8,158.7,84.9,150.8,92.9,142.8z"/>
		
			<radialGradient id="SVGID_16_" cx="165.1933" cy="86.235" r="23.9326" gradientTransform="matrix(1 0 0 -1 0 236)" gradientUnits="userSpaceOnUse">
			<stop  offset="0" style="stop-color:#CB765C"/>
			<stop  offset="0.2457" style="stop-color:#C76C50"/>
			<stop  offset="0.606" style="stop-color:#C46245"/>
			<stop  offset="1" style="stop-color:#C35F41"/>
		</radialGradient>
		<path class="st19" d="M178.1,151c0,0-10.3-11.5-22.3-24.7c-0.6-0.7-1.1-1.4-1.4-2.1c-0.4,2.7,0.4,5.5,2.4,7.6
			c12,13.2,22.3,24.7,22.3,24.7l0.2,0.2c1.1,1.1,1.9,2.4,2.4,3.8c0.2-3.3-1-6.7-3.4-9.3L178.1,151z"/>
		<path class="st5" d="M81.1,76.8c9.1-9.1,29.1,12.5,43.2,26.2c3.5,3.4,9.1,3.6,12.8,0.3c13.8-12.2,25.2-27.8,25.2-27.8
			c5.4-4.3,13.3-3.3,17.6,2.1c0.7,0.9,1.3,2,1.8,3c0.2-3-0.7-6-2.7-8.5c-4.3-5.5-12.2-6.4-17.6-2.1c0,0-11.5,10.2-25.2,22.4
			c-3.7,3.3-9.2,3.1-12.8-0.3c-14.1-13.7-34.1-29.9-43.2-20.7c-4.7,4.7-5.4,9.6-3.6,14.5C76.8,82.7,78.1,79.7,81.1,76.8z"/>
	</g>
</g>
<g>
	
		<linearGradient id="SVGID_17_" gradientUnits="userSpaceOnUse" x1="-1155.8877" y1="-290.0982" x2="-1072.7" y2="-90.113" gradientTransform="matrix(1.0186 3.060000e-02 2.960000e-02 -0.9849 -3.626 237.0745)">
		<stop  offset="0.1684" style="stop-color:#A4B3BD"/>
		<stop  offset="0.7313" style="stop-color:#EFF1F3"/>
		<stop  offset="0.8503" style="stop-color:#FFFFFF"/>
	</linearGradient>
	<path class="st20" d="M-1038.5,393.4c-1.8,59.3-50.6,106-109,104.2c-58.4-1.8-104.3-51.3-102.6-110.5c1.8-59.3,50.6-106,109-104.2
		C-1082.6,284.6-1036.7,334.1-1038.5,393.4z"/>
	
		<linearGradient id="SVGID_18_" gradientUnits="userSpaceOnUse" x1="-1188.286" y1="-248.5229" x2="-1100.4789" y2="-60.2198" gradientTransform="matrix(1 0 0 -1 0 236)">
		<stop  offset="0" style="stop-color:#FDFDFD"/>
		<stop  offset="0.3014" style="stop-color:#F4F4F4"/>
		<stop  offset="0.7865" style="stop-color:#DDDDDD"/>
		<stop  offset="1" style="stop-color:#D0D0D0"/>
	</linearGradient>
	<circle class="st21" cx="-1144.4" cy="390.4" r="103.9"/>
</g>
<g>
	<g>
		
			<ellipse transform="matrix(3.000150e-02 -0.9995 0.9995 3.000150e-02 -572.281 829.7024)" class="st6" cx="141.3" cy="709.7" rx="107.4" ry="105.8"/>
	</g>
	
		<linearGradient id="SVGID_19_" gradientUnits="userSpaceOnUse" x1="114.5723" y1="-574.756" x2="197.76" y2="-374.7708" gradientTransform="matrix(1.0186 3.060000e-02 2.960000e-02 -0.9849 -3.626 237.0745)">
		<stop  offset="0.1684" style="stop-color:#A4B3BD"/>
		<stop  offset="0.7313" style="stop-color:#EFF1F3"/>
		<stop  offset="0.8503" style="stop-color:#FFFFFF"/>
	</linearGradient>
	<path class="st22" d="M247.2,712.6c-1.8,59.3-50.6,106-109,104.2S33.8,765.6,35.6,706.3s50.6-106,109-104.2
		C203,603.8,249,653.3,247.2,712.6z"/>
	
		<linearGradient id="SVGID_20_" gradientUnits="userSpaceOnUse" x1="97.3887" y1="-567.7585" x2="185.1958" y2="-379.4553" gradientTransform="matrix(1 0 0 -1 0 236)">
		<stop  offset="0" style="stop-color:#FDFDFD"/>
		<stop  offset="0.3014" style="stop-color:#F4F4F4"/>
		<stop  offset="0.7865" style="stop-color:#DDDDDD"/>
		<stop  offset="1" style="stop-color:#D0D0D0"/>
	</linearGradient>
	<circle class="st23" cx="141.3" cy="709.6" r="103.9"/>
</g>
<g>
	<path class="st3" d="M-1071.7,349.7c-4-5.1-11.3-6-16.4-2c0,0-63.6,53.5-65.5,55.1l-25.1-22.1c-5.2-4.6-13-5-18.7-0.6
		c-6.4,5-6.6,12.3-1.7,18.7l31.2,43.1c0.1,0.2,0.3,0.4,0.5,0.6c6.3,7.4,17.4,8.3,24.8,2l69.9-81.3l0.2-0.2
		C-1068.5,359-1068.1,354.3-1071.7,349.7z"/>
	
		<radialGradient id="SVGID_21_" cx="-1149.7408" cy="-177.4437" r="104.4226" gradientTransform="matrix(1 0 0 -1 0 236)" gradientUnits="userSpaceOnUse">
		<stop  offset="0" style="stop-color:#A0BA73"/>
		<stop  offset="0.2034" style="stop-color:#99B56A"/>
		<stop  offset="0.5839" style="stop-color:#92B05F"/>
		<stop  offset="1" style="stop-color:#8FAE5B"/>
	</radialGradient>
	<path class="st24" d="M-1071.7,345.2c-4-5.1-11.3-6-16.4-2c0,0-63.6,53.5-65.5,55.1l-25.1-22.1c-5.2-4.6-13-5-18.7-0.6
		c-6.4,5-7.5,14.2-2.6,20.6l32.1,41.3c0.1,0.2,0.3,0.4,0.5,0.6c6.3,7.4,17.4,8.3,24.8,2l69.9-79.5l0.2-0.2
		C-1068.5,356.3-1068.1,349.8-1071.7,345.2z"/>
	<path class="st5" d="M-1197.3,382.9c5.7-4.4,13.5-4,18.7,0.6l20.2,23.2c1.7,1.9,4.6,2.1,6.5,0.4c13.8-12.2,63.8-56.6,63.8-56.6
		c5.1-4,12.4-3.1,16.4,2c0.9,1.1,1.5,2.3,1.9,3.6c1.2-3.6,0.6-7.7-1.9-10.9c-4-5.1-11.3-6-16.4-2c0,0-63.6,53.5-65.5,55.1
		l-25.1-22.1c-5.2-4.6-13-5-18.7-0.6c-4.8,3.7-6.6,9.7-5.2,15.2C-1201.7,387.8-1200,385-1197.3,382.9z"/>
</g>
<g>
	<path class="st3" d="M192.3,745.3c0,0-10.3-11.8-22.3-25.2c-3.3-3.6-3.3-9.2-0.1-12.9c12.4-14.2,22.4-25.7,22.4-25.7l0.2-0.3
		c4.2-4.5,4.6-11.7,0.7-16.7c-4.3-5.6-12.2-6.5-17.6-2.2c0,0-11.5,10.4-25.2,22.9c-3.7,3.3-9.2,3.2-12.8-0.3
		c-14.1-14-34.1-30.6-43.2-21.2c-12.5,12.8,3.3,26.9,19.8,38.6c5,3.5,9.5,11.8,5,15.9c-6.1,5.6-12.5,12.6-12.9,13
		c-11.7,12-19.2,23.7-11.8,31.8c9,10,25.1-1.4,32.9-9.8c3.2-3.4,7.5-8.2,13-14.5c3.8-4.3,11.4-3.2,15.1,1.2
		c9.8,11.8,20.3,24.4,20.3,24.4c5.5,4.4,13.3,3.4,17.6-2.2c3.9-5.1,3.5-12.2-0.7-16.7L192.3,745.3z"/>
	
		<radialGradient id="SVGID_22_" cx="131.1295" cy="-496.5439" r="86.1209" gradientTransform="matrix(1 0 0 -1 0 236)" gradientUnits="userSpaceOnUse">
		<stop  offset="0" style="stop-color:#CB765C"/>
		<stop  offset="0.2457" style="stop-color:#C76C50"/>
		<stop  offset="0.606" style="stop-color:#C46245"/>
		<stop  offset="1" style="stop-color:#C35F41"/>
	</radialGradient>
	<path class="st25" d="M191.4,742.5c0,0-10.3-11.5-22.3-24.7c-3.3-3.5-3.3-9-0.1-12.6c12.4-13.9,22.4-25.1,22.4-25.1l0.2-0.2
		c4.2-4.5,4.6-11.4,0.7-16.3c-4.3-5.5-12.2-6.4-17.6-2.1c0,0-11.5,10.2-25.2,22.4c-3.7,3.3-9.2,3.1-12.8-0.3
		c-14.1-13.7-34.1-29.9-43.2-20.7c-12.5,12.5,3.3,26.3,19.8,37.7c5,3.5,9.5,11.5,5,15.6c-6.1,5.5-12.5,12.3-12.9,12.7
		c-11.7,11.7-19.2,23.1-11.8,31.1c9,9.8,25.1-1.4,32.9-9.6c3.2-3.4,7.5-8,13-14.1c3.8-4.2,11.4-3.1,15.1,1.2
		c9.8,11.5,20.3,23.8,20.3,23.8c5.5,4.3,13.3,3.3,17.6-2.1c3.9-4.9,3.5-11.9-0.7-16.3L191.4,742.5z"/>
	<g>
		
			<radialGradient id="SVGID_23_" cx="102.6194" cy="-507.8098" r="27.2799" gradientTransform="matrix(1 0 0 -1 0 236)" gradientUnits="userSpaceOnUse">
			<stop  offset="0" style="stop-color:#CB765C"/>
			<stop  offset="0.2457" style="stop-color:#C76C50"/>
			<stop  offset="0.606" style="stop-color:#C46245"/>
			<stop  offset="1" style="stop-color:#C35F41"/>
		</radialGradient>
		<path class="st26" d="M106.2,734.2c0.4-0.4,6.8-7.3,12.9-12.7c2.4-2.2,2.3-5.4,0.8-8.5c-0.2,1.2-0.8,2.2-1.8,3.1
			c-6.1,5.5-12.5,12.3-12.9,12.7c-10.4,10.4-17.4,20.5-13.8,28.2C92.1,750.2,98.1,742.2,106.2,734.2z"/>
		
			<radialGradient id="SVGID_24_" cx="178.4436" cy="-505.1855" r="23.9326" gradientTransform="matrix(1 0 0 -1 0 236)" gradientUnits="userSpaceOnUse">
			<stop  offset="0" style="stop-color:#CB765C"/>
			<stop  offset="0.2457" style="stop-color:#C76C50"/>
			<stop  offset="0.606" style="stop-color:#C46245"/>
			<stop  offset="1" style="stop-color:#C35F41"/>
		</radialGradient>
		<path class="st27" d="M191.4,742.5c0,0-10.3-11.5-22.3-24.7c-0.6-0.7-1.1-1.4-1.5-2.1c-0.4,2.7,0.4,5.5,2.4,7.6
			c12,13.2,22.3,24.7,22.3,24.7l0.2,0.2c1.1,1.1,1.9,2.4,2.5,3.8c0.2-3.3-1-6.7-3.4-9.3L191.4,742.5z"/>
		<path class="st5" d="M94.3,668.2c9.1-9.1,29.1,12.5,43.2,26.2c3.5,3.4,9.1,3.6,12.8,0.3c13.8-12.2,25.2-27.8,25.2-27.8
			c5.5-4.3,13.3-3.3,17.6,2.1c0.7,0.9,1.3,2,1.8,3c0.2-3-0.7-6-2.7-8.5c-4.3-5.5-12.2-6.4-17.6-2.1c0,0-11.5,10.2-25.2,22.4
			c-3.7,3.3-9.2,3.1-12.8-0.3c-14.1-13.7-34.1-29.9-43.2-20.7c-4.7,4.7-5.4,9.6-3.6,14.5C90,674.2,91.4,671.1,94.3,668.2z"/>
	</g>
</g>
</svg>
